# xmcd
#
# Track frame offsets:
#	150
#	16933
#	71695
#	96910
#	130398
#	160740
#	183790
#
# Disc length: 2779 seconds
#
# Revision: 1
# Processed by: cddbd v1.5.1PL2 Copyright (c) Steve Scherf et al.
# Submitted via: EasyCDDAExtractor 9.0.0.1
#
DISCID=540ad907
DTITLE=Blue Oyster Cult - International Amphitheatre Chicago 12-10-79 Disc 2
DYEAR=1979
DGENRE=Hard Rock
TTITLE0=ME 262 
TTITLE1=Godzilla
TTITLE2=Hot Rails To Hell 
TTITLE3=Five Guitars 
TTITLE4=Born To Be Wild 
TTITLE5=OD 'd On Life Itself 
TTITLE6=(Don't Fear) The Reaper 
EXTD=
EXTT0=
EXTT1=
EXTT2=
EXTT3=
EXTT4=
EXTT5=
EXTT6=
PLAYORDER=
